<?xml version="1.0" encoding="utf-8"?>
<!-- Generator: Adobe Illustrator 15.0.2, SVG Export Plug-In  -->
<!DOCTYPE svg PUBLIC "-//W3C//DTD SVG 1.1//EN" "http://www.w3.org/Graphics/SVG/1.1/DTD/svg11.dtd" [
	<!ENTITY ns_flows "http://ns.adobe.com/Flows/1.0/">
]>
<svg version="1.1"
	 xmlns="http://www.w3.org/2000/svg" xmlns:xlink="http://www.w3.org/1999/xlink" xmlns:a="http://ns.adobe.com/AdobeSVGViewerExtensions/3.0/"
	 x="0px" y="0px" width="512px" height="512px" viewBox="-35.238 -104.001 512 512"
	 overflow="visible" enable-background="new -35.238 -104.001 512 512" xml:space="preserve">
<defs>
</defs>
<linearGradient id="SVGID_1_" gradientUnits="userSpaceOnUse" x1="221.1504" y1="303.3101" x2="221.1504" y2="2.2842">
	<stop  offset="0" style="stop-color:#0584AB"/>
	<stop  offset="0.0397" style="stop-color:#138DB2"/>
	<stop  offset="0.1526" style="stop-color:#36A3C4"/>
	<stop  offset="0.2671" style="stop-color:#52B4D1"/>
	<stop  offset="0.3823" style="stop-color:#65C0DB"/>
	<stop  offset="0.4987" style="stop-color:#71C8E1"/>
	<stop  offset="0.6182" style="stop-color:#75CAE3"/>
	<stop  offset="1" style="stop-color:#B9E5FA"/>
</linearGradient>
<path fill="url(#SVGID_1_)" d="M3.233,75.962L222.01,303.31L439.067,75.962L354.624,2.284H87.647L3.233,75.962z"/>
<polygon fill="#2BABE2" points="117.1,75.783 222.01,75.783 222.01,306.573 "/>
<polygon fill="#2BABE2" points="326.95,75.783 222.01,75.783 222.01,306.573 "/>
<polygon fill="#71D0F5" points="117.1,75.783 0,75.783 222.01,306.573 "/>
<polygon fill="#71D0F5" points="325.17,75.783 442.33,75.783 222.01,306.573 "/>
<polygon fill="#D5EEF9" points="222.01,75.783 222.01,0 148.571,0 117.1,75.783 "/>
<polygon fill="#D5EEF9" points="222.01,75.783 222.01,0 295.479,0 326.95,75.783 "/>
<polygon fill="#71D0F5" points="148.571,0 86.817,0 0,75.783 117.1,75.783 "/>
<polygon fill="#D5EEF9" points="293.7,0 355.483,0 442.33,75.783 325.17,75.783 "/>
<polygon fill="#7ACAED" points="148.571,0 0,75.783 86.817,0 "/>
<polygon fill="#D5EEF9" points="61.19,75.783 221.446,305.328 117.1,75.783 "/>
<polygon fill="#D5EEF9" points="222.01,75.783 274.479,75.783 222.01,306.573 "/>
<polygon fill="#7ACAED" points="163.46,75.783 117.1,75.783 221.446,305.328 "/>
<polygon fill="#5AAFE2" points="324.191,74.775 388.466,74.775 222.069,306.306 "/>
<linearGradient id="SVGID_2_" gradientUnits="userSpaceOnUse" x1="148.5708" y1="37.8916" x2="222.0098" y2="37.8916">
	<stop  offset="0" style="stop-color:#75CAE3"/>
	<stop  offset="0.2166" style="stop-color:#61C4E0"/>
	<stop  offset="0.6591" style="stop-color:#2CB5D8"/>
	<stop  offset="1" style="stop-color:#00A8D2"/>
</linearGradient>
<polygon fill="url(#SVGID_2_)" points="148.571,0 222.01,75.783 222.01,0 "/>
<polygon fill="#2BABE2" points="293.7,0 222.01,75.783 222.01,0 "/>
<polygon fill="#94D4F0" points="324.191,74.775 355.483,0 442.33,75.783 "/>
<polygon fill="#94D4F0" points="293.7,0.89 274.479,75.783 324.191,74.775 "/>
<polygon fill="#71D0F5" points="387.518,75.783 355.483,0 442.33,75.783 "/>
<polygon fill="#2BABE2" points="148.571,0.89 163.46,75.783 117.1,75.783 "/>
<polygon fill="#2BABE2" points="61.19,75.783 148.571,0.89 117.1,75.783 "/>
</svg>
